{
	"asset":{
		"version":"2.0",
		"generator":"Created using the official Cinema 4D glTF Exporter 1.000x283854"
	},
	"scenes":[{
		"nodes":[0,
		1,
		2,
		3,
		4,
		5,
		6,
		7,
		8,
		9]
	}],
	"nodes":[{
		"name":"Grues",
		"translation":[-221.547,
		-50.545,
		-301.32],
		"rotation":[0,
		0,
		0,
		-1],
		"scale":[1,
		1,
		-1],
		"mesh":0
	},
	{
		"name":"buildings",
		"translation":[-246.556,
		-37.801,
		-332.189],
		"rotation":[0,
		0,
		0,
		-1],
		"scale":[1,
		1,
		-1],
		"mesh":1
	},
	{
		"name":"Cube.1",
		"translation":[-113.154,
		-101.165,
		-335.477],
		"rotation":[0,
		0,
		0,
		-1],
		"scale":[1,
		1,
		-1],
		"mesh":2
	},
	{
		"name":"black_building",
		"translation":[-191.862,
		-101.658,
		-335.953],
		"rotation":[0,
		0,
		0,
		-1],
		"scale":[1,
		1,
		-1],
		"mesh":3
	},
	{
		"name":"Cube.2",
		"translation":[-83.407,
		-120.781,
		-357.057],
		"rotation":[0,
		0,
		0,
		-1],
		"scale":[1,
		1,
		-1],
		"mesh":4
	},
	{
		"name":"sol et iles",
		"translation":[-213.217,
		-67.708,
		-156.873],
		"rotation":[0,
		0,
		0,
		-1],
		"scale":[1,
		1,
		-1],
		"mesh":5
	},
	{
		"name":"entrepot",
		"translation":[15.486,
		-116.104,
		-300.965],
		"rotation":[0,
		0,
		0,
		-1],
		"scale":[1,
		1,
		-1],
		"mesh":6
	},
	{
		"name":"sapins.1",
		"translation":[-80.513,
		-74.951,
		-211.933],
		"rotation":[0,
		0,
		0,
		-1],
		"scale":[1,
		1,
		-1],
		"mesh":7
	},
	{
		"name":"port.1",
		"translation":[166.717,
		-114.319,
		-184.445],
		"rotation":[0,
		0,
		0,
		-1],
		"scale":[1,
		1,
		-1],
		"mesh":8
	},
	{
		"name":"Nuage",
		"translation":[-676.819,
		37.525,
		-456.864],
		"rotation":[0,
		0,
		0,
		-1],
		"scale":[1,
		1,
		-1],
		"mesh":9
	}],
	"meshes":[{
		"primitives":[{
			"attributes":{
				"POSITION":1,
				"TEXCOORD_0":2
			},
			"indices":0,
			"material":0
		}]
	},
	{
		"primitives":[{
			"attributes":{
				"POSITION":4,
				"TEXCOORD_0":5
			},
			"indices":3,
			"material":0
		}]
	},
	{
		"primitives":[{
			"attributes":{
				"POSITION":7,
				"TEXCOORD_0":8
			},
			"indices":6,
			"material":0
		}]
	},
	{
		"primitives":[{
			"attributes":{
				"POSITION":10,
				"TEXCOORD_0":11
			},
			"indices":9,
			"material":0
		}]
	},
	{
		"primitives":[{
			"attributes":{
				"POSITION":13,
				"TEXCOORD_0":14
			},
			"indices":12,
			"material":0
		}]
	},
	{
		"primitives":[{
			"attributes":{
				"POSITION":16,
				"TEXCOORD_0":17
			},
			"indices":15,
			"material":0
		}]
	},
	{
		"primitives":[{
			"attributes":{
				"POSITION":19,
				"TEXCOORD_0":20
			},
			"indices":18,
			"material":0
		}]
	},
	{
		"primitives":[{
			"attributes":{
				"POSITION":22,
				"TEXCOORD_0":23
			},
			"indices":21,
			"material":0
		}]
	},
	{
		"primitives":[{
			"attributes":{
				"POSITION":25,
				"TEXCOORD_0":26
			},
			"indices":24,
			"material":0
		}]
	},
	{
		"primitives":[{
			"attributes":{
				"POSITION":28,
				"TEXCOORD_0":29
			},
			"indices":27,
			"material":0
		}]
	}],
	"accessors":[{
		"bufferView":0,
		"type":"SCALAR",
		"componentType":5123,
		"count":324,
		"byteOffset":0,
		"min":[0],
		"max":[63]
	},
	{
		"bufferView":1,
		"type":"VEC3",
		"componentType":5126,
		"count":64,
		"byteOffset":0,
		"min":[-85.773,
		30.661,
		-101.418],
		"max":[85.773,
		209.374,
		101.418]
	},
	{
		"bufferView":1,
		"type":"VEC2",
		"componentType":5126,
		"count":64,
		"byteOffset":12,
		"min":[0.056,
		0.387],
		"max":[0.066,
		0.401]
	},
	{
		"bufferView":2,
		"type":"SCALAR",
		"componentType":5123,
		"count":882,
		"byteOffset":0,
		"min":[0],
		"max":[244]
	},
	{
		"bufferView":3,
		"type":"VEC3",
		"componentType":5126,
		"count":245,
		"byteOffset":0,
		"min":[-96.379,
		-2.248,
		-128.951],
		"max":[96.379,
		242.283,
		128.951]
	},
	{
		"bufferView":3,
		"type":"VEC2",
		"componentType":5126,
		"count":245,
		"byteOffset":12,
		"min":[0.035,
		0.3],
		"max":[0.599,
		0.793]
	},
	{
		"bufferView":4,
		"type":"SCALAR",
		"componentType":5123,
		"count":492,
		"byteOffset":0,
		"min":[0],
		"max":[107]
	},
	{
		"bufferView":5,
		"type":"VEC3",
		"componentType":5126,
		"count":108,
		"byteOffset":0,
		"min":[-37.862,
		90.031,
		-79.864],
		"max":[37.862,
		150.004,
		79.864]
	},
	{
		"bufferView":5,
		"type":"VEC2",
		"componentType":5126,
		"count":108,
		"byteOffset":12,
		"min":[0.182,
		0.577],
		"max":[0.214,
		0.612]
	},
	{
		"bufferView":6,
		"type":"SCALAR",
		"componentType":5123,
		"count":1110,
		"byteOffset":0,
		"min":[0],
		"max":[238]
	},
	{
		"bufferView":7,
		"type":"VEC3",
		"componentType":5126,
		"count":239,
		"byteOffset":0,
		"min":[-122.151,
		62.685,
		-123.948],
		"max":[122.151,
		177.349,
		123.948]
	},
	{
		"bufferView":7,
		"type":"VEC2",
		"componentType":5126,
		"count":239,
		"byteOffset":12,
		"min":[0.309,
		0.644],
		"max":[0.333,
		0.657]
	},
	{
		"bufferView":8,
		"type":"SCALAR",
		"componentType":5123,
		"count":1560,
		"byteOffset":0,
		"min":[0],
		"max":[407]
	},
	{
		"bufferView":9,
		"type":"VEC3",
		"componentType":5126,
		"count":408,
		"byteOffset":0,
		"min":[-29.093,
		116.194,
		-85.531],
		"max":[29.093,
		123.84,
		85.531]
	},
	{
		"bufferView":9,
		"type":"VEC2",
		"componentType":5126,
		"count":408,
		"byteOffset":12,
		"min":[0.264,
		0.573],
		"max":[0.365,
		0.608]
	},
	{
		"bufferView":10,
		"type":"SCALAR",
		"componentType":5123,
		"count":2202,
		"byteOffset":0,
		"min":[0],
		"max":[564]
	},
	{
		"bufferView":11,
		"type":"VEC3",
		"componentType":5126,
		"count":565,
		"byteOffset":0,
		"min":[-834.695,
		-80.866,
		-793.373],
		"max":[834.695,
		320.9,
		793.373]
	},
	{
		"bufferView":11,
		"type":"VEC2",
		"componentType":5126,
		"count":565,
		"byteOffset":12,
		"min":[0.057,
		0.122],
		"max":[0.578,
		0.614]
	},
	{
		"bufferView":12,
		"type":"SCALAR",
		"componentType":5123,
		"count":792,
		"byteOffset":0,
		"min":[0],
		"max":[259]
	},
	{
		"bufferView":13,
		"type":"VEC3",
		"componentType":5126,
		"count":260,
		"byteOffset":0,
		"min":[-35.333,
		110.178,
		-81.276],
		"max":[35.333,
		129.856,
		81.276]
	},
	{
		"bufferView":13,
		"type":"VEC2",
		"componentType":5126,
		"count":260,
		"byteOffset":12,
		"min":[0.009,
		0.265],
		"max":[0.995,
		0.868]
	},
	{
		"bufferView":14,
		"type":"SCALAR",
		"componentType":5123,
		"count":52464,
		"byteOffset":0,
		"min":[0],
		"max":[9024]
	},
	{
		"bufferView":15,
		"type":"VEC3",
		"componentType":5126,
		"count":9025,
		"byteOffset":0,
		"min":[-167.078,
		55.242,
		-423.664],
		"max":[167.078,
		184.792,
		423.664]
	},
	{
		"bufferView":15,
		"type":"VEC2",
		"componentType":5126,
		"count":9025,
		"byteOffset":12,
		"min":[0.399,
		0.128],
		"max":[0.473,
		0.313]
	},
	{
		"bufferView":16,
		"type":"SCALAR",
		"componentType":5123,
		"count":3228,
		"byteOffset":0,
		"min":[0],
		"max":[725]
	},
	{
		"bufferView":17,
		"type":"VEC3",
		"componentType":5126,
		"count":726,
		"byteOffset":0,
		"min":[-82.49,
		102.797,
		-40.044],
		"max":[82.49,
		137.238,
		40.044]
	},
	{
		"bufferView":17,
		"type":"VEC2",
		"componentType":5126,
		"count":726,
		"byteOffset":12,
		"min":[0.016,
		0.031],
		"max":[0.918,
		0.987]
	},
	{
		"bufferView":18,
		"type":"SCALAR",
		"componentType":5123,
		"count":2640,
		"byteOffset":0,
		"min":[0],
		"max":[471]
	},
	{
		"bufferView":19,
		"type":"VEC3",
		"componentType":5126,
		"count":472,
		"byteOffset":0,
		"min":[-236.801,
		2.479,
		-494.812],
		"max":[236.801,
		237.556,
		494.812]
	},
	{
		"bufferView":19,
		"type":"VEC2",
		"componentType":5126,
		"count":472,
		"byteOffset":12,
		"min":[0.034,
		0.525],
		"max":[0.077,
		0.547]
	}],
	"bufferViews":[{
		"buffer":0,
		"byteOffset":0,
		"byteLength":648,
		"target":34963
	},
	{
		"buffer":0,
		"byteOffset":648,
		"byteLength":1280,
		"target":34962,
		"byteStride":20
	},
	{
		"buffer":1,
		"byteOffset":0,
		"byteLength":1764,
		"target":34963
	},
	{
		"buffer":1,
		"byteOffset":1764,
		"byteLength":4900,
		"target":34962,
		"byteStride":20
	},
	{
		"buffer":2,
		"byteOffset":0,
		"byteLength":984,
		"target":34963
	},
	{
		"buffer":2,
		"byteOffset":984,
		"byteLength":2160,
		"target":34962,
		"byteStride":20
	},
	{
		"buffer":3,
		"byteOffset":0,
		"byteLength":2220,
		"target":34963
	},
	{
		"buffer":3,
		"byteOffset":2220,
		"byteLength":4780,
		"target":34962,
		"byteStride":20
	},
	{
		"buffer":4,
		"byteOffset":0,
		"byteLength":3120,
		"target":34963
	},
	{
		"buffer":4,
		"byteOffset":3120,
		"byteLength":8160,
		"target":34962,
		"byteStride":20
	},
	{
		"buffer":5,
		"byteOffset":0,
		"byteLength":4404,
		"target":34963
	},
	{
		"buffer":5,
		"byteOffset":4404,
		"byteLength":11300,
		"target":34962,
		"byteStride":20
	},
	{
		"buffer":6,
		"byteOffset":0,
		"byteLength":1584,
		"target":34963
	},
	{
		"buffer":6,
		"byteOffset":1584,
		"byteLength":5200,
		"target":34962,
		"byteStride":20
	},
	{
		"buffer":7,
		"byteOffset":0,
		"byteLength":104928,
		"target":34963
	},
	{
		"buffer":7,
		"byteOffset":104928,
		"byteLength":180500,
		"target":34962,
		"byteStride":20
	},
	{
		"buffer":8,
		"byteOffset":0,
		"byteLength":6456,
		"target":34963
	},
	{
		"buffer":8,
		"byteOffset":6456,
		"byteLength":14520,
		"target":34962,
		"byteStride":20
	},
	{
		"buffer":9,
		"byteOffset":0,
		"byteLength":5280,
		"target":34963
	},
	{
		"buffer":9,
		"byteOffset":5280,
		"byteLength":9440,
		"target":34962,
		"byteStride":20
	}],
	"buffers":[{
		"uri":"data:application/octet-stream;base64,",
		"byteLength":1928
	},
	{
		"uri":"data:application/octet-stream;base64,",
		"byteLength":6664
	},
	{
		"uri":"data:application/octet-stream;base64,",
		"byteLength":3144
	},
	{
		"uri":"data:application/octet-stream;base64,",
		"byteLength":7000
	},
	{
		"uri":"data:application/octet-stream;base64,",
		"byteLength":11280
	},
	{
		"uri":"data:application/octet-stream;base64,",
		"byteLength":15704
	},
	{
		"uri":"data:application/octet-stream;base64,",
		"byteLength":6784
	},
	{
		"uri":"data:application/octet-stream;base64,",
		"byteLength":285428
	},
	{
		"uri":"data:application/octet-stream;base64,",
		"byteLength":20976
	},
	{
		"uri":"data:application/octet-stream;base64,",
		"byteLength":14720
	}],
	"images":[{
		"uri":"data:image/jpeg;base64,"
	}],
	"samplers":[{
		"magFilter":9729,
		"minFilter":9729,
		"wrapS":10497,
		"wrapT":10497
	}],
	"textures":[{
		"sampler":0,
		"source":0
	}],
	"materials":[{
		"pbrMetallicRoughness":{
			"baseColorTexture":{
				"index":0
			},
			"baseColorFactor":[1,
			1,
			1,
			1],
			"metallicFactor":0,
			"roughnessFactor":0.568
		},
		"emissiveFactor":[0,
		0,
		0],
		"doubleSided":false,
		"alphaMode":"OPAQUE",
		"name":"Material.037"
	}]
}